<?xml version="1.0"?>
<svg xmlns="http://www.w3.org/2000/svg" xmlns:xlink="http://www.w3.org/1999/xlink" version="1.1" id="Layer_1" x="0px" y="0px" viewBox="0 0 503.42 503.42" style="enable-background:new 0 0 503.42 503.42;" xml:space="preserve" width="512px" height="512px" class=""><g><g>
	<g>
		<path d="M356.652,28.196C304.975-1.873,257.541,0.045,256.361,0.106c-3.957-0.174-92.932-3.393-118.741,43.615    c-10.7,0.963-33.627,5.571-49.195,26.884c-20.978,28.721-20.013,75.725,2.834,139.707l-0.151,51.109    c0,59.271,5.814,119.643,48.05,159.735c6.73,6.388,13.968,12.113,21.37,17.488v56.097c0,4.799,3.879,8.678,8.678,8.678    c4.799,0,8.678-3.879,8.678-8.678v-44.1c0.974,0.652,1.95,1.307,2.919,1.955l8.331,5.606c3.289,2.222,6.5,4.599,9.711,6.96    c13.885,10.283,28.247,20.905,48.466,20.905c20.211,0,34.573-10.622,48.466-20.905c3.202-2.36,6.413-4.738,9.702-6.96l8.34-5.606    c0.967-0.647,1.941-1.301,2.912-1.952v44.096c0,4.799,3.879,8.678,8.678,8.678s8.678-3.879,8.678-8.678v-56.097    c7.401-5.375,14.639-11.099,21.369-17.488c42.444-40.292,48.293-101.046,48.293-160.716v-32.077    c15.307-20.005,24.037-42.858,25.938-67.985C433.635,108.199,404.971,56.322,356.652,28.196z M343.506,408.566    c-6.726,6.389-14.199,12.179-21.895,17.67c-0.885,0.431-1.688,1.001-2.373,1.693c-4.994,3.504-10.062,6.893-15.069,10.238    l-8.435,5.658c-3.489,2.369-6.882,4.886-10.275,7.394c-12.167,8.99-23.665,17.495-38.148,17.495    c-14.492,0-25.991-8.504-38.157-17.495c-3.393-2.508-6.786-5.025-10.275-7.394l-8.435-5.658    c-13.564-9.06-27.579-18.432-39.337-29.601c-39.355-37.35-42.643-95.536-42.643-147.118l0.234-79.108    c0-5.866,1.145-11.559,3.402-16.905c5.901-13.98,20.107-22.32,35.614-22.32c4.999,0,10.136,0.868,15.169,2.69    c13.234,4.782,38.669,10.5,84.662,10.5c45.993,0,71.42-5.719,84.662-10.5c20.688-7.472,42.973,1.137,50.775,19.63    c2.265,5.346,3.41,11.038,3.41,16.905v43.124c0,0.036-0.001,0.072,0,0.109v34.869    C386.393,316.232,381.194,372.795,343.506,408.566z M412.382,159.069c-0.943,12.47-3.841,24.29-8.634,35.376V182.34    c0-8.201-1.614-16.158-4.782-23.656c-11.385-26.988-43.32-39.823-72.661-29.201c-11.932,4.322-35.285,9.468-78.761,9.468    c-43.477,0-66.829-5.146-78.761-9.468c-29.323-10.648-61.266,2.213-72.678,29.201c-0.357,0.846-0.688,1.7-1.006,2.557    c-7.543-35.748-5.173-63.086,7.218-80.221c14.883-20.602,39.589-20.202,40.543-20.185c3.975,0.399,6.916-1.979,8.314-5.311    c17.304-41.22,103.511-38.166,105.22-38.079c0.443,0.009,44.249-1.762,91.526,25.756    C390.54,67.994,415.836,113.484,412.382,159.069z" data-original="#000000" class="active-path" data-old_color="#000000" fill="#FF5A3C"/>
	</g>
</g></g> </svg>
