<?xml version="1.0"?>
<svg xmlns="http://www.w3.org/2000/svg" height="512px" viewBox="0 0 512 512" width="512px" class=""><g><g id="Outline"><path d="m56 328h9.509l30.662 145.648a8 8 0 0 0 7.829 6.352h72a24 24 0 0 0 1.6-47.947l-12.7-56.053h19.1a8 8 0 0 0 8-8v-36.667a298.012 298.012 0 0 1 110.548 73.143l25.669 26.952a28 28 0 0 0 55.783-3.428v-125.222l41.315-6.886a8 8 0 0 0 6.685-7.892v-64a8 8 0 0 0 -6.685-7.892l-41.315-6.886v-125.222a28 28 0 0 0 -55.783-3.428l-25.669 26.952a297.911 297.911 0 0 1 -119.878 76.476h-126.67a40.045 40.045 0 0 0 -40 40v64a40.045 40.045 0 0 0 40 40zm115.2 120h4.8a8 8 0 0 1 0 16h-65.509l-28.632-136h55.751l25.79 113.769a8 8 0 0 0 7.8 6.231zm4.8-88h-14.73l-7.254-32h21.984zm240-129.223v50.446l-32 5.334v-61.114zm-60-158.777a12.013 12.013 0 0 1 12 12v344a12 12 0 0 1 -24 0v-344a12.013 12.013 0 0 1 12-12zm-41.866 46.56 13.866-14.56v304l-13.866-14.56a314.04 314.04 0 0 0 -122.134-79.149v-116.582a314.029 314.029 0 0 0 122.134-79.149zm-138.134 193.44h-96v-112h96zm-144-88a24.027 24.027 0 0 1 24-24h8v112h-8a24.027 24.027 0 0 1 -24-24z" data-original="#000000" class="active-path" data-old_color="#000000" fill="#FF5A3C"/><path d="m96 256h16v32h-16z" data-original="#000000" class="active-path" data-old_color="#000000" fill="#FF5A3C"/><path d="m128 256h16v32h-16z" data-original="#000000" class="active-path" data-old_color="#000000" fill="#FF5A3C"/><path d="m447.525 204.8h48.951v16h-48.951z" transform="matrix(.981 -.196 .196 .981 -32.566 96.693)" data-original="#000000" class="active-path" data-old_color="#000000" fill="#FF5A3C"/><path d="m420.402 44h79.196v16h-79.196z" transform="matrix(.707 -.707 .707 .707 97.949 340.484)" data-original="#000000" class="active-path" data-old_color="#000000" fill="#FF5A3C"/><path d="m435.751 120h64.498v16.001h-64.498z" transform="matrix(.868 -.496 .496 .868 -1.844 249.054)" data-original="#000000" class="active-path" data-old_color="#000000" fill="#FF5A3C"/><path d="m464 276.325h16v48.951h-16z" transform="matrix(.196 -.981 .981 .196 84.48 704.647)" data-original="#000000" class="active-path" data-old_color="#000000" fill="#FF5A3C"/><path d="m452 422.002h16v79.196h-16z" transform="matrix(.707 -.707 .707 .707 -191.669 460.497)" data-original="#000000" class="active-path" data-old_color="#000000" fill="#FF5A3C"/><path d="m460 353.351h16.001v64.498h-16.001z" transform="matrix(.496 -.868 .868 .496 -98.987 600.626)" data-original="#000000" class="active-path" data-old_color="#000000" fill="#FF5A3C"/><path d="m309.136 167.045-10.272-12.268c-3.8 3.186-7.733 6.327-11.677 9.335l9.7 12.721c4.139-3.154 8.259-6.448 12.249-9.788z" data-original="#000000" class="active-path" data-old_color="#000000" fill="#FF5A3C"/><path d="m283.754 186.377-9.1-13.162a330.947 330.947 0 0 1 -61.71 33.594l6.108 14.787a346.876 346.876 0 0 0 64.702-35.219z" data-original="#000000" class="active-path" data-old_color="#000000" fill="#FF5A3C"/></g></g> </svg>
