<?xml version="1.0"?>
<svg xmlns="http://www.w3.org/2000/svg" height="512px" viewBox="0 0 512 512" width="512px"><g><g id="Outline"><path d="m32 32h224v56a8 8 0 0 0 8 8h56v32h16v-40a8 8 0 0 0 -2.343-5.657l-50.344-50.343h68.687v96h16v-96h16v96h16v-104a8 8 0 0 0 -8-8h-368a8 8 0 0 0 -8 8v416a8 8 0 0 0 8 8h216v-16h-208zm240 11.313 36.687 36.687h-36.687z" data-original="#000000" class="active-path" data-old_color="#000000" fill="#FF5A3C"/><path d="m232.6 127.457a79.733 79.733 0 0 1 14.681 20.185l14.246-7.284a95.743 95.743 0 0 0 -24.733-30.658l-.008-.007a96 96 0 1 0 -79.607 168.452 96.7 96.7 0 0 0 18.821 1.855 95.288 95.288 0 0 0 68.421-28.666l-11.4-11.222a79.407 79.407 0 0 1 -57.021 23.888c-2.591 0-5.186-.125-7.767-.375l14.021-70.1 56.07 12.015 3.352-15.645-51.186-10.972 16.559-20.239zm-48.6 34.131v-57.188a80.253 80.253 0 0 1 36.213 12.925zm-88 22.412a80.115 80.115 0 0 1 72-79.6v78.811l-7.412 37.062-8.047 40.227a80.205 80.205 0 0 1 -56.541-76.5z" data-original="#000000" class="active-path" data-old_color="#000000" fill="#FF5A3C"/><path d="m56 64h48v16h-48z" data-original="#000000" class="active-path" data-old_color="#000000" fill="#FF5A3C"/><path d="m56 96h32v16h-32z" data-original="#000000" class="active-path" data-old_color="#000000" fill="#FF5A3C"/><path d="m104 328h136v16h-136z" data-original="#000000" class="active-path" data-old_color="#000000" fill="#FF5A3C"/><path d="m56 328h32v16h-32z" data-original="#000000" class="active-path" data-old_color="#000000" fill="#FF5A3C"/><path d="m56 360h184v16h-184z" data-original="#000000" class="active-path" data-old_color="#000000" fill="#FF5A3C"/><path d="m56 296h184v16h-184z" data-original="#000000" class="active-path" data-old_color="#000000" fill="#FF5A3C"/><path d="m176 392h64v16h-64z" data-original="#000000" class="active-path" data-old_color="#000000" fill="#FF5A3C"/><path d="m56 392h104v16h-104z" data-original="#000000" class="active-path" data-old_color="#000000" fill="#FF5A3C"/><path d="m464 144h-176a32.036 32.036 0 0 0 -32 32v272a32.036 32.036 0 0 0 32 32h24v-16h-24a16.019 16.019 0 0 1 -16-16v-272a16.019 16.019 0 0 1 16-16h176a16.019 16.019 0 0 1 16 16v192h16v-192a32.036 32.036 0 0 0 -32-32z" data-original="#000000" class="active-path" data-old_color="#000000" fill="#FF5A3C"/><path d="m464 184a8 8 0 0 0 -8-8h-160a8 8 0 0 0 -8 8v64a8 8 0 0 0 8 8h160a8 8 0 0 0 8-8zm-16 56h-144v-48h144z" data-original="#000000" class="active-path" data-old_color="#000000" fill="#FF5A3C"/><path d="m288 312a8 8 0 0 0 8 8h32a8 8 0 0 0 8-8v-32a8 8 0 0 0 -8-8h-32a8 8 0 0 0 -8 8zm16-24h16v16h-16z" data-original="#000000" class="active-path" data-old_color="#000000" fill="#FF5A3C"/><path d="m360 272a8 8 0 0 0 -8 8v32a8 8 0 0 0 8 8h32a8 8 0 0 0 8-8v-32a8 8 0 0 0 -8-8zm24 32h-16v-16h16z" data-original="#000000" class="active-path" data-old_color="#000000" fill="#FF5A3C"/><path d="m456 272h-32a8 8 0 0 0 -8 8v32a8 8 0 0 0 8 8h32a8 8 0 0 0 8-8v-32a8 8 0 0 0 -8-8zm-8 32h-16v-16h16z" data-original="#000000" class="active-path" data-old_color="#000000" fill="#FF5A3C"/><path d="m288 376a8 8 0 0 0 8 8h32a8 8 0 0 0 8-8v-32a8 8 0 0 0 -8-8h-32a8 8 0 0 0 -8 8zm16-24h16v16h-16z" data-original="#000000" class="active-path" data-old_color="#000000" fill="#FF5A3C"/><path d="m464 376v-32a8 8 0 0 0 -8-8h-32a8 8 0 0 0 -8 8v32a8 8 0 0 0 8 8h32a8 8 0 0 0 8-8zm-16-8h-16v-16h16z" data-original="#000000" class="active-path" data-old_color="#000000" fill="#FF5A3C"/><path d="m288 432h16v-16h16v-16h-24a8 8 0 0 0 -8 8z" data-original="#000000" class="active-path" data-old_color="#000000" fill="#FF5A3C"/><path d="m416 208h16v16h-16z" data-original="#000000" class="active-path" data-old_color="#000000" fill="#FF5A3C"/><path d="m384 208h16v16h-16z" data-original="#000000" class="active-path" data-old_color="#000000" fill="#FF5A3C"/><path d="m352 208h16v16h-16z" data-original="#000000" class="active-path" data-old_color="#000000" fill="#FF5A3C"/><path d="m472 384a23.9 23.9 0 0 0 -16 6.126 23.958 23.958 0 0 0 -32 0 23.979 23.979 0 0 0 -24-4.755v-49.371a8 8 0 0 0 -8-8h-32a8 8 0 0 0 -8 8v89.052l-8.951-5.968a25.117 25.117 0 0 0 -30.012 40.194l41.841 34.868a8 8 0 0 0 5.122 1.854h128a8 8 0 0 0 8-8v-80a24.028 24.028 0 0 0 -24-24zm8 96h-117.1l-39.62-33.014a9.091 9.091 0 0 1 -3.28-7 9.117 9.117 0 0 1 14.174-7.586l21.388 14.259a8 8 0 0 0 12.438-6.659v-80a8 8 0 0 1 16 0v48a8 8 0 0 0 16 0 8 8 0 0 1 16 0 8 8 0 0 0 16 0 8 8 0 0 1 16 0 8 8 0 0 0 16 0 8 8 0 0 1 16 0z" data-original="#000000" class="active-path" data-old_color="#000000" fill="#FF5A3C"/></g></g> </svg>
